Coordinates
version=1
nRows=43
nColumns=12
inDegrees=yes

Units are S.I. units (second, meters, Newtons, ...)
Angles are in degrees

endheader
time	SC_y	SC_z	SC_x	AC_y	AC_z	AC_x	GH_y	GH_z	GH_yy	EL_x	PS_y
       0.0              -20.16         -3.445           34.4          38.87         -19.88           14.8          23.11          48.62           2.42          61.76          57.11
   0.04042              -20.16         -3.445          34.41          38.88         -19.88           14.8          23.12          48.62          2.398          61.77          57.12
   0.08085              -20.16         -3.445          34.41          38.88         -19.88           14.8          23.12          48.63          2.375          61.78          57.12
    0.1213              -20.16         -3.445          34.42          38.88         -19.88           14.8          23.12          48.63          2.349          61.79          57.13
    0.1617              -20.16         -3.445          34.43          38.89         -19.88           14.8          23.12          48.64          2.323           61.8          57.14
    0.2021              -20.16         -3.445          34.44          38.89         -19.88           14.8          23.12          48.64          2.294          61.81          57.15
    0.2425              -20.16         -3.445          34.45           38.9         -19.87           14.8          23.13          48.65          2.264          61.83          57.16
     0.283              -20.16         -3.445          34.46           38.9         -19.87          14.79          23.13          48.66          2.231          61.84          57.17
    0.3234              -20.16         -3.445          34.47           38.9         -19.87          14.79          23.13          48.66          2.196          61.86          57.18
    0.3638              -20.15         -3.444          34.48          38.91         -19.87          14.79          23.13          48.67          2.159          61.87          57.19
    0.4042              -20.15         -3.444          34.49          38.92         -19.87          14.79          23.14          48.68          2.119          61.89           57.2
    0.4447              -20.15         -3.444          34.51          38.92         -19.87          14.79          23.14          48.68          2.076          61.91          57.22
    0.4851              -20.15         -3.444          34.52          38.93         -19.86          14.79          23.14          48.69          2.029          61.93          57.23
    0.5255              -20.15         -3.444          34.54          38.94         -19.86          14.78          23.15           48.7          1.979          61.95          57.25
    0.5659              -20.15         -3.444          34.55          38.94         -19.86          14.78          23.15          48.71          1.925          61.98          57.27
    0.6064              -20.15         -3.444          34.57          38.95         -19.86          14.78          23.15          48.72          1.865           62.0          57.28
    0.6468              -20.15         -3.444          34.59          38.96         -19.86          14.78          23.16          48.74          1.801          62.03           57.3
    0.6872              -20.14         -3.444          34.61          38.97         -19.85          14.77          23.16          48.75          1.731          62.06          57.33
    0.7276              -20.14         -3.444          34.64          38.98         -19.85          14.77          23.17          48.76          1.655           62.1          57.35
    0.7681              -20.14         -3.444          34.66          38.99         -19.85          14.77          23.18          48.78          1.572          62.13          57.38
    0.8085              -20.14         -3.444          34.69          39.01         -19.84          14.76          23.18           48.8           1.48          62.17          57.41
    0.8489              -20.14         -3.444          34.72          39.02         -19.84          14.76          23.19          48.82          1.379          62.22          57.44
    0.8893              -20.13         -3.444          34.76          39.04         -19.83          14.76           23.2          48.84          1.267          62.27          57.47
    0.9297              -20.13         -3.444          34.79          39.05         -19.83          14.75          23.21          48.86          1.144          62.32          57.51
    0.9702              -20.13         -3.444          34.84          39.07         -19.82          14.74          23.22          48.89          1.006          62.38          57.55
     1.011              -20.12         -3.444          34.88           39.1         -19.82          14.74          23.23          48.92         0.8531          62.45           57.6
     1.051              -20.12         -3.443          34.94          39.12         -19.81          14.73          23.24          48.95         0.6814          62.53          57.66
     1.091              -20.12         -3.443           35.0          39.15          -19.8          14.72          23.25          48.99         0.4883          62.61          57.72
     1.132              -20.11         -3.443          35.06          39.18         -19.79          14.71          23.27          49.03           0.27          62.71          57.79
     1.172              -20.11         -3.443          35.14          39.21         -19.78           14.7          23.29          49.08        0.02217          62.82          57.87
     1.213               -20.1         -3.443          35.23          39.25         -19.77          14.69          23.31          49.13        -0.2607          62.95          57.95
     1.253              -20.09         -3.443          35.33           39.3         -19.76          14.68          23.33          49.19        -0.5853          63.09          58.06
     1.294              -20.08         -3.442          35.44          39.35         -19.74          14.66          23.36          49.26          -0.96          63.26          58.17
     1.334              -20.07         -3.442          35.58          39.41         -19.72          14.65          23.39          49.35         -1.395          63.45          58.31
     1.374              -20.06         -3.442          35.74          39.49          -19.7          14.63          23.43          49.44         -1.905          63.68          58.47
     1.415              -20.05         -3.441          35.92          39.57         -19.68           14.6          23.47          49.56         -2.506          63.94          58.66
     1.455              -20.03         -3.441          36.14          39.67         -19.65          14.57          23.52          49.69         -3.219          64.26          58.89
     1.496              -20.01          -3.44          36.41          39.79         -19.61          14.54          23.58          49.86         -4.075          64.64          59.16
     1.536              -19.99          -3.44          36.73          39.94         -19.57          14.49          23.66          50.05          -5.11           65.1          59.48
     1.577              -19.96         -3.439          37.12          40.12         -19.52          14.44          23.75           50.3         -6.375          65.66          59.88
     1.617              -19.92         -3.438           37.6          40.34         -19.45          14.38          23.86          50.59         -7.935          66.36          60.37
     1.657              -19.88         -3.436           38.2          40.62         -19.37           14.3          24.01          50.96         -9.881          67.22          60.99
     1.698              -19.82         -3.435          38.96          40.96         -19.27           14.2          24.18          51.43         -12.33          68.31          61.76
